<svg width="32" height="32" viewBox="0 0 32 32" xmlns="http://www.w3.org/2000/svg">
  <defs>
    <style>
      .dev-bg { fill: #0ea5e9; }
      .dev-screen { fill: #1e293b; }
      .dev-code { fill: #22c55e; }
      .dev-accent { fill: #3b82f6; }
      .dev-highlight { fill: #64748b; }
      .dev-text { fill: #f1f5f9; }
    </style>
  </defs>
  
  <!-- Background circle -->
  <circle cx="16" cy="16" r="16" class="dev-bg"/>
  
  <!-- Monitor screen -->
  <rect x="6" y="8" width="20" height="14" rx="1" class="dev-screen"/>
  <rect x="7" y="9" width="18" height="12" rx="0.5" fill="#0f172a"/>
  
  <!-- Code lines with syntax highlighting -->
  <rect x="8" y="11" width="2" height="1" class="dev-accent"/>
  <rect x="11" y="11" width="6" height="1" class="dev-code"/>
  <rect x="18" y="11" width="3" height="1" class="dev-text"/>
  
  <rect x="9" y="13" width="4" height="1" class="dev-accent"/>
  <rect x="14" y="13" width="5" height="1" class="dev-code"/>
  
  <rect x="8" y="15" width="3" height="1" class="dev-text"/>
  <rect x="12" y="15" width="7" height="1" class="dev-code"/>
  
  <rect x="10" y="17" width="2" height="1" class="dev-accent"/>
  <rect x="13" y="17" width="4" height="1" class="dev-text"/>
  <rect x="18" y="17" width="3" height="1" class="dev-code"/>
  
  <rect x="8" y="19" width="1" height="1" class="dev-accent"/>
  <rect x="10" y="19" width="8" height="1" class="dev-code"/>
  
  <!-- Monitor stand -->
  <rect x="14" y="22" width="4" height="3" class="dev-highlight"/>
  <rect x="12" y="25" width="8" height="1" class="dev-highlight"/>
  
  <!-- Cursor/pointer -->
  <rect x="19" y="15" width="1" height="2" class="dev-text" opacity="0.8">
    <animate attributeName="opacity" dur="1s" values="0.8;0.2;0.8" repeatCount="indefinite"/>
  </rect>
</svg>
